<svg aria-hidden="true" style="position: absolute; width: 0; height: 0; overflow: hidden;" version="1.1" xmlns="http://www.w3.org/2000/svg" xmlns:xlink="http://www.w3.org/1999/xlink">
<defs>
<symbol id="header-close" viewBox="0 0 32 32">
<path d="M31.439 3.166l-3.166-3.166-12.553 12.553-12.553-12.553-3.166 3.166 12.553 12.553-12.553 12.553 3.166 3.166 12.553-12.553 12.553 12.553 3.166-3.166-12.553-12.553 12.553-12.553z"></path>
</symbol>
<symbol id="header-burger" viewBox="0 0 38 32">
<path fill="#fbb500" style="fill: var(--color6, #fbb500)" d="M1.28 3.2c0-0.679 0.27-1.33 0.75-1.81s1.131-0.75 1.81-0.75h30.72c0.679 0 1.33 0.27 1.81 0.75s0.75 1.131 0.75 1.81-0.27 1.33-0.75 1.81c-0.48 0.48-1.131 0.75-1.81 0.75h-30.72c-0.679 0-1.33-0.27-1.81-0.75s-0.75-1.131-0.75-1.81zM1.28 16c0-0.679 0.27-1.33 0.75-1.81s1.131-0.75 1.81-0.75h30.72c0.679 0 1.33 0.27 1.81 0.75s0.75 1.131 0.75 1.81c0 0.679-0.27 1.33-0.75 1.81s-1.131 0.75-1.81 0.75h-30.72c-0.679 0-1.33-0.27-1.81-0.75s-0.75-1.131-0.75-1.81zM16.64 28.8c0-0.679 0.27-1.33 0.75-1.81s1.131-0.75 1.81-0.75h15.36c0.679 0 1.33 0.27 1.81 0.75s0.75 1.131 0.75 1.81-0.27 1.33-0.75 1.81c-0.48 0.48-1.131 0.75-1.81 0.75h-15.36c-0.679 0-1.33-0.27-1.81-0.75s-0.75-1.131-0.75-1.81z"></path>
</symbol>
</defs>
</svg>
