<svg aria-hidden="true" style="position: absolute; width: 0; height: 0; overflow: hidden;" version="1.1" xmlns="http://www.w3.org/2000/svg" xmlns:xlink="http://www.w3.org/1999/xlink">
<defs>
<symbol id="icon-location" viewBox="0 0 32 32">
<path fill="#ffd600" style="fill: var(--color3, #ffd600)" d="M16 0c-5.523 0-10 4.477-10 10 0 10 10 22 10 22s10-12 10-22c0-5.523-4.477-10-10-10zM16 16c-3.314 0-6-2.686-6-6s2.686-6 6-6 6 2.686 6 6-2.686 6-6 6z"></path>
</symbol>
<symbol id="icon-phone" viewBox="0 0 32 32">
<path fill="#ffd600" style="fill: var(--color3, #ffd600)" d="M22 20c-2 2-2 4-4 4s-4-2-6-4-4-4-4-6 2-2 4-4-4-8-6-8-6 6-6 6c0 4 4.109 12.109 8 16s12 8 16 8c0 0 6-4 6-6s-6-8-8-6z"></path>
</symbol>
<symbol id="icon-envelop" viewBox="0 0 32 32">
<path fill="#ffd600" style="fill: var(--color3, #ffd600)" d="M29 4h-26c-1.65 0-3 1.35-3 3v20c0 1.65 1.35 3 3 3h26c1.65 0 3-1.35 3-3v-20c0-1.65-1.35-3-3-3zM12.461 17.199l-8.461 6.59v-15.676l8.461 9.086zM5.512 8h20.976l-10.488 7.875-10.488-7.875zM12.79 17.553l3.21 3.447 3.21-3.447 6.58 8.447h-19.579l6.58-8.447zM19.539 17.199l8.461-9.086v15.676l-8.461-6.59z"></path>
</symbol>
<symbol id="icon-logo" viewBox="0 0 32 32">
<path fill="#ffd600" style="fill: var(--color3, #ffd600)" d="M31.219 14.737c-0.3 0-1.441 0.421-2.041 0.662-0.060-0.241-0.3-0.421-0.6-0.421s-0.601 0.18-0.601 0.421l-1.141-0.18c-0.18-2.466-1.141-4.631-2.642-6.376l0.66-0.962c0.18 0.12 0.54 0.12 0.72-0.121 0.24-0.241 0.3-0.541 0.12-0.722 0.601-0.241 1.741-0.722 1.921-0.963 0.24-0.301 0.060-0.902-0.36-1.383-0.48-0.421-1.081-0.602-1.381-0.361-0.24 0.18-0.721 1.323-0.961 1.925-0.18-0.12-0.54-0.060-0.72 0.12-0.24 0.241-0.3 0.541-0.12 0.722l-0.961 0.662c-1.713-1.486-3.91-2.455-6.326-2.644l-0.038-0.002-0.18-1.143c0.24-0.060 0.42-0.301 0.42-0.602s-0.18-0.541-0.42-0.602c0.24-0.601 0.66-1.744 0.66-2.045-0.060-0.421-0.6-0.722-1.261-0.722s-1.201 0.301-1.261 0.722c0 0.301 0.42 1.444 0.66 2.045-0.24 0.060-0.42 0.301-0.42 0.602s0.18 0.601 0.42 0.601l-0.18 1.143c-2.462 0.18-4.623 1.143-6.364 2.647l-0.961-0.662c0.12-0.18 0.12-0.541-0.12-0.722-0.24-0.241-0.54-0.301-0.72-0.12-0.24-0.602-0.72-1.684-0.961-1.925-0.3-0.241-0.9-0.060-1.321 0.421-0.48 0.421-0.66 1.023-0.42 1.383 0.18 0.241 1.321 0.722 1.921 0.963-0.12 0.18-0.060 0.541 0.12 0.722 0.24 0.241 0.54 0.301 0.72 0.12l0.66 0.962c-1.484 1.717-2.452 3.918-2.64 6.338l-0.002 0.038-1.141 0.18c-0.060-0.24-0.3-0.421-0.6-0.421s-0.54 0.18-0.6 0.421c-0.601-0.24-1.741-0.662-2.041-0.662-0.42 0.060-0.72 0.601-0.72 1.263s0.3 1.203 0.72 1.263c0.3 0 1.441-0.421 2.041-0.662 0.060 0.241 0.3 0.421 0.6 0.421s0.6-0.18 0.6-0.421l1.141 0.18c0.18 2.466 1.141 4.632 2.642 6.376l-0.6 0.902c-0.18-0.12-0.54-0.12-0.72 0.12-0.24 0.241-0.3 0.541-0.12 0.722-0.601 0.241-1.681 0.722-1.921 0.963-0.24 0.301-0.060 0.902 0.36 1.383 0.48 0.481 1.081 0.662 1.381 0.361 0.24-0.18 0.721-1.323 0.961-1.925 0.18 0.12 0.54 0.060 0.72-0.12 0.24-0.241 0.3-0.541 0.12-0.722l0.961-0.662c1.713 1.486 3.91 2.455 6.326 2.644l0.038 0.002 0.18 1.143c-0.24 0.060-0.42 0.301-0.42 0.602s0.18 0.541 0.42 0.601c-0.24 0.602-0.66 1.744-0.66 2.045 0.060 0.421 0.6 0.722 1.261 0.722s1.201-0.301 1.261-0.722c0-0.301-0.42-1.444-0.66-2.045 0.24-0.060 0.42-0.301 0.42-0.601s-0.18-0.602-0.42-0.602l0.18-1.143c2.462-0.18 4.623-1.143 6.364-2.647l0.961 0.662c-0.12 0.18-0.12 0.541 0.12 0.722 0.24 0.241 0.54 0.301 0.72 0.12 0.24 0.601 0.72 1.744 0.961 1.925 0.3 0.241 0.9 0.060 1.381-0.361 0.48-0.481 0.66-1.083 0.36-1.383-0.18-0.241-1.321-0.722-1.921-0.963 0.12-0.18 0.060-0.541-0.12-0.722-0.24-0.241-0.54-0.301-0.72-0.12l-0.66-0.962c1.484-1.718 2.451-3.918 2.639-6.338l0.002-0.038 1.141-0.18c0.060 0.24 0.3 0.421 0.6 0.421s0.54-0.18 0.6-0.421c0.601 0.24 1.741 0.662 2.041 0.662 0.42-0.060 0.72-0.602 0.72-1.263-0.12-0.602-0.42-1.203-0.781-1.263zM6.604 16.421c-0.24 0-0.42-0.18-0.42-0.421s0.18-0.421 0.42-0.421 0.42 0.18 0.42 0.421c0 0.241-0.18 0.421-0.42 0.421zM22.274 9.083c0.18-0.18 0.42-0.18 0.6 0s0.18 0.421 0 0.602c-0.18 0.18-0.42 0.18-0.6 0-0.056-0.085-0.090-0.189-0.090-0.301s0.034-0.216 0.091-0.303l-0.001 0.002zM15.97 6.256c0.24 0 0.42 0.18 0.42 0.421s-0.18 0.421-0.42 0.421c-0.24 0-0.42-0.18-0.42-0.421s0.18-0.421 0.42-0.421zM9.066 9.083c0.18-0.18 0.42-0.18 0.601 0s0.18 0.421 0 0.602c-0.18 0.18-0.42 0.18-0.601 0-0.056-0.085-0.090-0.189-0.090-0.301s0.034-0.216 0.091-0.303l-0.001 0.002zM10.146 10.827l0.48 0.481c0.12 0.12 0.24 0.12 0.36 0.060l0.66 0.662c-0.18 0.421 0 1.083 0.54 1.624 0.601 0.602 1.441 0.782 1.801 0.421-0.48 0.481-0.78 1.143-0.78 1.865v-0.18h-2.342c-0.060 0-0.12-0.060-0.12-0.18s0.060-0.18 0.12-0.18h2.462v-0.060c0-0.18-0.18-0.361-0.36-0.361h-2.342c-0.12 0-0.42 0.361-0.6 0.662h-0.72c-0.060-0.12-0.18-0.241-0.3-0.241h-0.781c0.12-1.684 0.781-3.308 1.921-4.571zM9.666 22.917c-0.18 0.18-0.42 0.18-0.601 0s-0.18-0.421 0-0.602c0.18-0.18 0.42-0.18 0.601 0s0.18 0.421 0 0.602zM10.146 21.173c-1.141-1.263-1.861-2.947-1.981-4.752h0.78c0.12 0 0.3-0.12 0.3-0.241h0.66c0.18 0.301 0.48 0.722 0.6 0.722h2.342c0.18 0 0.36-0.12 0.36-0.301v-0.12h-2.342c-0.060 0-0.12-0.060-0.12-0.18s0.060-0.18 0.12-0.18h2.462v-0.18c0 0.722 0.3 1.383 0.78 1.865-0.36-0.361-1.201-0.18-1.801 0.421-0.54 0.541-0.72 1.203-0.54 1.624l-0.66 0.662c-0.12-0.060-0.3-0.060-0.36 0.060l-0.6 0.602zM15.97 25.805c-0.24 0-0.42-0.18-0.42-0.421s0.18-0.421 0.42-0.421c0.24 0 0.42 0.18 0.42 0.421s-0.18 0.421-0.42 0.421zM22.874 22.917c-0.18 0.18-0.42 0.18-0.6 0s-0.18-0.421 0-0.602c0.18-0.18 0.42-0.18 0.6 0s0.18 0.421 0 0.602zM21.794 21.173l-0.48-0.481c-0.12-0.12-0.24-0.12-0.36-0.060l-0.66-0.662c0.18-0.421 0-1.083-0.54-1.624-0.6-0.602-1.441-0.782-1.801-0.421s-0.18 1.203 0.42 1.804c0.54 0.541 1.201 0.722 1.621 0.541l0.66 0.662c-0.060 0.12-0.060 0.301 0.060 0.361l0.48 0.481c-1.261 1.143-2.882 1.865-4.683 1.985v-0.782c0-0.12-0.12-0.301-0.24-0.301v-0.722c0.24-0.18 0.66-0.481 0.66-0.602v-2.346c0-0.18-0.18-0.361-0.36-0.361h-0.060v2.466c0 0.060-0.060 0.12-0.18 0.12s-0.18-0.060-0.18-0.12v-2.406h-0.36v2.406c0 0.060-0.060 0.12-0.18 0.12s-0.18-0.060-0.18-0.12v-2.406h-0.12c-0.18 0-0.3 0.18-0.3 0.361v2.346c0 0.12 0.42 0.421 0.72 0.601v0.662c-0.12 0.060-0.24 0.18-0.24 0.301v0.782c-1.801-0.12-3.482-0.842-4.743-1.985l0.48-0.481c0.12-0.12 0.12-0.241 0.060-0.361l0.66-0.662c0.42 0.18 1.081 0 1.621-0.541 0.601-0.602 0.781-1.444 0.42-1.804 0.48 0.481 1.141 0.782 1.861 0.782 1.501 0 2.642-1.203 2.642-2.647 0-1.504-1.201-2.647-2.642-2.647-0.72 0-1.381 0.301-1.861 0.782 0.36-0.361 0.18-1.203-0.42-1.804-0.54-0.541-1.201-0.722-1.621-0.541l-0.66-0.662c0.060-0.12 0.060-0.301-0.060-0.361l-0.48-0.481c1.261-1.143 2.942-1.865 4.743-1.985v0.782c0 0.12 0.12 0.301 0.24 0.301v0.662c-0.3 0.18-0.72 0.481-0.72 0.602v2.346c0 0.18 0.12 0.361 0.3 0.361h0.12v-2.526c0-0.060 0.060-0.12 0.18-0.12s0.18 0.060 0.18 0.12v2.466h0.36v-2.466c0-0.060 0.060-0.12 0.18-0.12s0.18 0.060 0.18 0.12v2.466h0.060c0.18 0 0.36-0.18 0.36-0.361v-2.346c0-0.12-0.36-0.421-0.66-0.602v-0.722c0.12-0.060 0.24-0.18 0.24-0.301v-0.782c1.801 0.12 3.422 0.842 4.683 1.925l-0.48 0.481c-0.12 0.12-0.12 0.241-0.060 0.361l-0.66 0.662c-0.42-0.18-1.081 0-1.621 0.541-0.6 0.602-0.78 1.444-0.42 1.804s1.201 0.18 1.801-0.421c0.54-0.541 0.72-1.203 0.54-1.624l0.66-0.662c0.12 0.060 0.3 0.060 0.36-0.060l0.48-0.481c1.141 1.263 1.861 2.887 1.981 4.692h-0.781c-0.12 0-0.3 0.12-0.3 0.241h-0.72c-0.18-0.241-0.48-0.662-0.6-0.662h-2.342c-0.18 0-0.36 0.18-0.36 0.361v0.060h2.402c0.060 0 0.12 0.060 0.12 0.18s-0.060 0.18-0.12 0.18h-2.401v0.301h2.402c0.060 0 0.12 0.060 0.12 0.18s-0.060 0.18-0.12 0.18h-2.401v0.12c0 0.18 0.18 0.301 0.36 0.301h2.342c0.12 0 0.42-0.421 0.6-0.722h0.66c0.060 0.12 0.18 0.241 0.3 0.241h0.78c-0.060 1.865-0.78 3.489-1.921 4.752zM14.289 16c0-0.902 0.72-1.684 1.681-1.684 0.901 0 1.681 0.722 1.681 1.684 0 0.902-0.72 1.684-1.681 1.684-0.9 0-1.681-0.722-1.681-1.684zM25.336 16.421c-0.24 0-0.42-0.18-0.42-0.421s0.18-0.421 0.42-0.421c0.24 0 0.42 0.18 0.42 0.421s-0.18 0.421-0.42 0.421z"></path>
</symbol>
</defs>
</svg>
